<?xml version="1.0" encoding="UTF-8"?>
<svg viewBox="0 0 64 64" fill="none" xmlns="http://www.w3.org/2000/svg">
  <rect width="64" height="64" rx="14" fill="#7C3AED" fill-opacity="0.2"/>
  <path d="M18 20C18 18.8954 18.8954 18 20 18H44C45.1046 18 46 18.8954 46 20V44C46 45.1046 45.1046 46 44 46H20C18.8954 46 18 45.1046 18 44V20Z" fill="#7C3AED" fill-opacity="0.8"/>
  <path d="M32 14L38 20H26L32 14Z" fill="#7C3AED"/>
  <path d="M32 50L38 44H26L32 50Z" fill="#7C3AED"/>
  <path d="M14 32L20 26V38L14 32Z" fill="#7C3AED"/>
  <path d="M50 32L44 26V38L50 32Z" fill="#7C3AED"/>
  <circle cx="32" cy="32" r="8" fill="#FFFFFF"/>
  <path d="M30 28L36 32L30 36V28Z" fill="#7C3AED"/>
</svg> 